# AST/ASF file generated using VICON BodyLanguage
# -----------------------------------------------
:version 1.10
:name VICON
:units
  mass 1.0
  length 0.45
  angle deg
:documentation
   .ast/.asf automatically generated from VICON data using
   VICON BodyBuilder and BodyLanguage model FoxedUp or BRILLIANT.MOD
:root
   order TX TY TZ RX RY RZ
   axis XYZ
   position 0 0 0  
   orientation 0 0 0 
:bonedata
  begin
     id 1 
     name lhipjoint
     direction 0.573633 -0.743009 0.344793 
     length 2.46257 
     axis 0 0 0  XYZ
  end
  begin
     id 2 
     name lfemur
     direction 0.34202 -0.939693 0  
     length 7.3842  
     axis 0 0 20  XYZ
    dof rx ry rz
    limits (-160.0 20.0)
           (-70.0 70.0)
           (-60.0 70.0)
  end
  begin
     id 3 
     name ltibia
     direction 0.34202 -0.939693 0   
     length 7.50407   
     axis 0 0 20   XYZ
    dof rx
    limits (-10.0 170.0)
  end
  begin
     id 4 
     name lfoot
     direction 0.110749 -0.304281 0.946123   
     length 1.95925   
     axis -90 7.62852e-016 20   XYZ
    dof rx rz
    limits (-45.0 90.0)
           (-70.0 20.0)
  end
  begin
     id 5 
     name ltoes
     direction 1.53554e-011 -4.21843e-011 1   
     length 0.978318   
     axis -90 7.62852e-016 20   XYZ
    dof rx
    limits (-90.0 20.0)
  end
  begin
     id 6 
     name rhipjoint
     direction -0.488109 -0.791693 0.367385   
     length 2.31113  
     axis 0 0 0  XYZ 
  end
  begin
     id 7 
     name rfemur
     direction -0.34202 -0.939693 0   
     length 7.40965   
     axis 0 0 -20   XYZ
    dof rx ry rz
    limits (-160.0 20.0)
           (-70.0 70.0)
           (-70.0 60.0)
  end
  begin
     id 8 
     name rtibia
     direction -0.34202 -0.939693 0   
     length 7.55548   
     axis 0 0 -20   XYZ
    dof rx
    limits (-10.0 170.0)
 end
 begin
     id 9 
     name rfoot
     direction -0.127594 -0.350561 0.927808   
     length 2.07199  
     axis -90 -7.62852e-016 -20   XYZ
    dof rx rz
    limits (-45.0 90.0)
           (-20.0 70.0)
  end
  begin
     id 10 
     name rtoes
     direction -1.53542e-011 -4.21909e-011 1   
     length 1.02667   
     axis -90 -7.62852e-016 -20   XYZ
    dof rx
    limits (-90.0 20.0)
  end
  begin
     id 11 
     name lowerback
     direction -0.0103342 0.997298 -0.0727278   
     length 2.02836   
     axis 0 0 0   XYZ
    dof rx ry rz
    limits (-20.0 45.0)
           (-30.0 30.0)
           (-30.0 30.0)
  end
  begin
     id 12 
     name upperback
     direction 0.0171146 0.999786 -0.011606   
     length 2.03179   
     axis 0 0 0   XYZ
    dof rx ry rz
    limits (-20.0 45.0)
           (-30.0 30.0)
           (-30.0 30.0)
  end
  begin
     id 13 
     name thorax
     direction 0.0216927 0.999513 0.0224343   
     length 2.03882   
     axis 0 0 0   XYZ
    dof rx ry rz
    limits (-20.0 45.0)
           (-30.0 30.0)
           (-30.0 30.0)
  end
  begin
     id 14 
     name lowerneck
     direction 0.000989287 0.993907 0.110221   
     length 1.75428   
     axis 0 0 0   XYZ
    dof rx ry rz
    limits (-20.0 45.0)
           (-30.0 30.0)
           (-30.0 30.0)
  end
  begin
     id 15 
     name upperneck
     direction -0.0172474 0.994813 -0.100253   
     length 1.77058   
     axis 0 0 0   XYZ
    dof rx ry rz
    limits (-20.0 45.0)
           (-30.0 30.0)
           (-30.0 30.0)
  end
  begin
     id 16
     name head
     direction -0.00486455 0.99894 -0.0457663  
     length 1.77427  
     axis 0 0 0   XYZ
    dof rx ry rz
    limits (-20.0 45.0)
           (-30.0 30.0)
           (-30.0 30.0)
  end
  begin
     id 17 
     name lclavicle
     direction 0.927314 0.333734 -0.169441  
     length 3.97584  
     axis 0 0 0   XYZ
    dof ry rz
    limits (-20.0 10.0)
           (0.0 20.0)
  end
  begin
     id 18 
     name lhumerus
     direction 1 -4.48965e-011 -3.25313e-028   
     length 4.76468   
     axis 180 -30 -90   XYZ
    dof rx ry rz
    limits (-60.0 90.0)
           (-90.0 90.0)
           (-90.0 90.0)
  end
  begin
     id 19
     name lradius
     direction 1 -4.48969e-011 -2.8465e-028   
     length 3.52712   
     axis -180 -30 -90   XYZ
    dof rx
    limits (-10.0 170.0)
  end
  begin
     id 20
     name lwrist
     direction 1 -4.4896e-011 -7.78665e-028   
     length 1.76356   
     axis 1.91374e-015 90 90   XYZ
    dof ry
    limits (-180.0 0.0)
 end
  begin
     id 21 
     name lhand
     direction 1 -4.48959e-011 -1.55733e-027   
     length 0.859564   
     axis 9.9371e-016 90 90   XYZ
    dof rx rz
    limits (-90.0 90.0)
           (-45.0 45.0)
  end
  begin
     id 22 
     name lfingers
     direction 1 -4.48965e-011 -3.11466e-027   
     length 0.693002   
     axis 1.98742e-015 90 90   XYZ
    dof rx
    limits (0.0 90.0)
  end
  begin
     id 23
     name lthumb
     direction 0.707107 -6.34948e-011 0.707107   
     length 0.995017   
     axis -90 45 2.85299e-015   XYZ
    dof rx rz
    limits (-45.0 45.0)
           (-45.0 45.0)
  end
  begin
     id 24 
     name rclavicle
     direction -0.899388 0.348209 -0.264294   
     length 3.68366  
     axis 0 0 0   XYZ 
    dof ry rz
    limits (-10.0 20.0)
           (-20.0 0.0)
  end
  begin
     id 25 
     name rhumerus
     direction -1 -4.48965e-011 -3.01536e-027  
     length 4.90577   
     axis 180 30 90   XYZ
    dof rx ry rz
    limits (-90.0 60.0)
           (-90.0 90.0)
           (-90.0 90.0)
  end
  begin
     id 26 
     name rradius
     direction -1 -4.48966e-011 3.93291e-027   
     length 3.42692   
     axis -180 30 90   XYZ
    dof rx
    limits (-10.0 170.0)
  end
  begin
     id 27 
     name rwrist
     direction -1 -4.48969e-011 -7.78665e-028   
     length 1.71346   
     axis 1.91374e-015 -90 -90   XYZ
    dof ry
    limits (-180.0 0.0)
  end
  begin
     id 28
     name rhand
     direction -1 -4.48967e-011 -1.55733e-027   
     length 0.740957   
     axis 9.9371e-016 -90 -90   XYZ
    dof rx rz
    limits (-90.0 90.0)
           (-45.0 45.0)
  end
  begin
     id 29
     name rfingers
     direction -1 -4.48949e-011 -3.11466e-027   
     length 0.597378   
     axis 1.98742e-015 -90 -90   XYZ
    dof rx
    limits (0.0 90.0)
  end
  begin
     id 30
     name rthumb
     direction -0.707107 -6.34931e-011 0.707107   
     length 0.857719   
     axis -90 -45 -2.85299e-015   XYZ
    dof rx rz
    limits (-45.0 45.0)
           (-45.0 45.0)
  end
:hierarchy
  begin
    root lhipjoint rhipjoint lowerback
    lhipjoint lfemur
    lfemur ltibia
    ltibia lfoot
    lfoot ltoes
    rhipjoint rfemur
    rfemur rtibia
    rtibia rfoot
    rfoot rtoes
    lowerback upperback
    upperback thorax
    thorax lowerneck lclavicle rclavicle
    lowerneck upperneck
    upperneck head
    lclavicle lhumerus
    lhumerus lradius
    lradius lwrist
    lwrist lhand lthumb
    lhand lfingers
    rclavicle rhumerus
    rhumerus rradius
    rradius rwrist
    rwrist rhand rthumb
    rhand rfingers
  end

#!OML:ASF E:\I on waltz\AllaLogoMonkeySwing\Project 1\Capture day 1\Session 1\Subject1.ASF
:FULLY-SPECIFIED
:DEGREES
176
root 16.1944 17.1246 23.6196 -3.37018 38.0433 -2.17991
lowerback 5.90799 1.87276 2.25465
upperback -0.785073 2.77432 2.42839
thorax -4.14053 1.35843 0.985926
lowerneck -7.05189 9.05716 7.0979
upperneck 18.0534 13.4509 -9.1409
head 7.82586 6.25602 -2.85427
rclavicle 3.4104e-014 2.14687e-014
rhumerus -38.6183 -33.7729 -65.368
rradius 18.1958
rwrist 13.1871
rhand -8.06212 -37.2179
rfingers 7.12502
rthumb 17.8491 -66.4188
lclavicle 3.4104e-014 2.14687e-014
lhumerus -42.4447 18.5552 84.5082
lradius 35.662
lwrist -6.7349
lhand -2.47718 -11.867
lfingers 7.12502
lthumb 23.2156 16.7538
rfemur -3.75104 -3.04996 23.7686
rtibia 30.907
rfoot -23.9811 -12.1816
rtoes 13.0496
lfemur -5.62961 -1.9141 -17.1232
ltibia 29.8536
lfoot -22.7922 0.677422
ltoes -48.5697
177
root 16.22 17.1235 23.6378 -3.31857 38.007 -2.23935
lowerback 5.81349 1.93971 2.30286
upperback -0.827664 2.86277 2.38613
thorax -4.12715 1.40059 0.909787
lowerneck -7.04896 9.04686 7.01664
upperneck 17.9804 13.4313 -9.09884
head 7.79072 6.24643 -2.83124
rclavicle -1.46479e-014 -1.27222e-014
rhumerus -38.7213 -33.6034 -65.5415
rradius 18.3905
rwrist 12.0247
rhand -8.24857 -37.0628
rfingers 7.12502
rthumb 17.6697 -66.2799
lclavicle -1.46479e-014 -1.27222e-014
lhumerus -42.2741 17.8241 85.1811
lradius 35.6797
lwrist -6.14403
lhand -2.30265 -12.0112
lfingers 7.12502
lthumb 23.3831 16.5883
rfemur -3.68803 -3.10213 23.769
rtibia 30.8081
rfoot -24.0014 -12.0617
rtoes 13.0272
lfemur -5.60571 -1.85556 -17.093
ltibia 29.8311
lfoot -22.8371 0.719194
ltoes -48.7989
178
root 16.246 17.1249 23.6529 -3.29044 37.9199 -2.33175
lowerback 5.77169 2.03104 2.40071
upperback -0.895073 2.9905 2.34651
thorax -4.16671 1.46049 0.802895
lowerneck -7.02056 9.08587 7.09402
upperneck 18.0101 13.4889 -9.13158
head 7.80842 6.27699 -2.84801
rclavicle 3.69243e-014 2.8625e-014
rhumerus -38.8257 -33.456 -65.7171
rradius 18.6503
rwrist 11.0321
rhand -8.56166 -37.0423
rfingers 7.12502
rthumb 17.3683 -66.2863
lclavicle 3.69243e-014 2.8625e-014
lhumerus -42.175 17.0173 85.9115
lradius 35.8876
lwrist -5.2351
lhand -2.24039 -11.7256
lfingers 7.12502
lthumb 23.4428 16.8663
rfemur -3.64476 -3.18145 23.7808
rtibia 30.7471
rfoot -24.0404 -11.8658
rtoes 13.1838
lfemur -5.57109 -1.8033 -17.0304
ltibia 29.8199
lfoot -22.9295 0.652297
ltoes -48.5388
179
root 16.2704 17.1269 23.6659 -3.17369 37.8166 -2.33768
lowerback 5.71896 2.07196 2.34079
upperback -0.964899 3.03906 2.30567
thorax -4.21021 1.48474 0.790367
lowerneck -6.91465 9.20162 7.36598
upperneck 17.954 13.6624 -9.36019
head 7.82288 6.36366 -2.94888
rclavicle 8.00481e-014 -4.77083e-015
rhumerus -38.8045 -33.3195 -66.0192
rradius 18.9022
rwrist 10.5076
rhand -8.79101 -37.1138
rfingers 7.12502
rthumb 17.1476 -66.3772
lclavicle 8.00481e-014 -4.77083e-015
lhumerus -42.1871 16.9249 86.1467
lradius 36.1352
lwrist -5.52496
lhand -1.55603 -11.5471
lfingers 7.12502
lthumb 24.0992 16.9594
rfemur -3.67161 -3.26579 23.7138
rtibia 30.7247
rfoot -24.109 -11.642
rtoes 13.4411
lfemur -5.57675 -1.75765 -17.0386
ltibia 29.8134
lfoot -23.0742 0.528561
ltoes -48.2073
180
root 16.2899 17.1262 23.6787 -3.05332 37.7541 -2.2571
lowerback 5.71108 2.08261 2.15465
upperback -0.983854 3.03744 2.25304
thorax -4.23195 1.48733 0.839881
lowerneck -6.7959 9.32332 7.58699
upperneck 17.7758 13.8428 -9.61617
head 7.79483 6.45078 -3.05151
rclavicle -4.02539e-014 -3.97569e-015
rhumerus -38.5687 -33.0643 -66.5305
rradius 19.1282
rwrist 10.1191
rhand -8.92126 -37.2978
rfingers 7.12502
rthumb 17.0222 -66.5719
lclavicle -4.02539e-014 -3.97569e-015
lhumerus -42.1173 16.6944 86.4318
lradius 36.355
lwrist -5.37267
lhand -1.22643 -11.4644
lfingers 7.12502
lthumb 24.4152 16.9999
rfemur -3.67658 -3.20347 23.6197
rtibia 30.7435
rfoot -24.1758 -11.6334
rtoes 13.4755
lfemur -5.53907 -1.74395 -17.1229
ltibia 29.797
lfoot -23.1589 0.52017
ltoes -48.3549
181
root 16.3068 17.1236 23.6911 -3.00404 37.7121 -2.18249
lowerback 5.76861 2.12617 2.01561
upperback -0.973968 3.08423 2.19481
thorax -4.25809 1.51271 0.850902
lowerneck -6.55487 9.42811 7.5791
upperneck 17.4415 13.9854 -9.71165
head 7.66207 6.52624 -3.07909
rclavicle 4.62174e-014 3.18055e-015
rhumerus -38.231 -32.6742 -67.1348
rradius 19.3132
rwrist 9.53426
rhand -9.28879 -37.323
rfingers 7.12502
rthumb 16.6684 -66.6273
lclavicle 4.62174e-014 3.18055e-015
lhumerus -42.0356 16.1934 86.827
lradius 36.5881
lwrist -5.08888
lhand -1.18494 -11.5374
lfingers 7.12502
lthumb 24.4549 16.9215
rfemur -3.63042 -3.0505 23.5657
rtibia 30.7945
rfoot -24.2314 -11.7761
rtoes 13.2932
lfemur -5.43489 -1.68102 -17.2085
ltibia 29.7547
lfoot -23.2101 0.587837
ltoes -48.7379
182
root 16.3268 17.1228 23.7007 -2.82578 37.6862 -2.00122
lowerback 5.77165 2.16238 1.83686
upperback -0.989665 3.11576 2.10981
thorax -4.28065 1.53111 0.859437
lowerneck -6.32096 9.62118 7.6038
upperneck 17.1973 14.2546 -9.79116
head 7.57408 6.66386 -3.0907
rclavicle 4.39438e-014 -1.35174e-014
rhumerus -37.8835 -32.3801 -67.6959
rradius 19.4405
rwrist 9.09913
rhand -9.69024 -37.0766
rfingers 7.12502
rthumb 16.2819 -66.413
lclavicle 4.39438e-014 -1.35174e-014
lhumerus -42.0603 15.9629 87.0465
lradius 36.8919
lwrist -5.11137
lhand -1.07958 -11.611
lfingers 7.12502
lthumb 24.5559 16.8343
rfemur -3.65446 -2.98621 23.3855
rtibia 30.8494
rfoot -24.3349 -11.7793
rtoes 13.6526
lfemur -5.40482 -1.54482 -17.3999
ltibia 29.7057
lfoot -23.2586 0.621907
ltoes -49.1203
183
root 16.3484 17.1239 23.7081 -2.6255 37.6867 -1.80805
lowerback 5.75118 2.16618 1.68878
upperback -0.986316 3.10318 1.98913
thorax -4.26631 1.52667 0.819493
lowerneck -6.11771 9.88956 7.66503
upperneck 17.0131 14.6203 -9.82743
head 7.52046 6.85048 -3.08084
rclavicle 8.92046e-015 1.59028e-015
rhumerus -37.4198 -32.108 -68.3949
rradius 19.5431
rwrist 8.87476
rhand -9.57661 -37.0324
rfingers 7.12502
rthumb 16.3913 -66.3598
lclavicle 8.92046e-015 1.59028e-015
lhumerus -42.0293 15.823 87.1059
lradius 37.1267
lwrist -5.01938
lhand -0.932268 -11.753
lfingers 7.12502
lthumb 24.6971 16.673
rfemur -3.68326 -2.95724 23.1762
rtibia 30.8939
rfoot -24.4234 -11.7736
rtoes 13.8013
lfemur -5.39025 -1.45626 -17.6024
ltibia 29.6687
lfoot -23.2684 0.5802
ltoes -49.3019
184
root 16.3674 17.1237 23.7132 -2.58462 37.6869 -1.81613
lowerback 5.77654 2.19109 1.72343
upperback -0.947598 3.13394 1.89524
thorax -4.23322 1.53987 0.700212
lowerneck -5.88883 10.3051 8.03424
upperneck 16.837 15.2021 -10.0821
head 7.52862 7.14309 -3.16235
rclavicle -1.8723e-014 -1.59028e-014
rhumerus -36.858 -31.6197 -69.2751
rradius 19.7511
rwrist 8.56497
rhand -9.17633 -37.2199
rfingers 7.12502
rthumb 16.7767 -66.5151
lclavicle -1.8723e-014 -1.59028e-014
lhumerus -41.8285 14.8992 87.7057
lradius 37.5192
lwrist -2.98437
lhand -1.94688 -11.0553
lfingers 7.12502
lthumb 23.7243 17.5004
rfemur -3.69535 -2.94216 23.1475
rtibia 30.9338
rfoot -24.4484 -11.8188
rtoes 13.5275
lfemur -5.36366 -1.39459 -17.6186
ltibia 29.6504
lfoot -23.294 0.474992
ltoes -49.2522
